<?xml version="1.0" encoding="iso-8859-1"?>
<!-- Generator: Adobe Illustrator 19.0.0, SVG Export Plug-In . SVG Version: 6.00 Build 0)  -->
<svg version="1.1" id="Layer_1" xmlns="http://www.w3.org/2000/svg" xmlns:xlink="http://www.w3.org/1999/xlink" x="0px" y="0px"
	 viewBox="0 0 280.027 280.027" style="enable-background:new 0 0 280.027 280.027;" xml:space="preserve">
<g>
	<path style="fill:#3F95D4;" d="M52.505,35.003h35.003c4.839,0,8.751,3.929,8.751,8.768v175c0,4.839-3.912,8.751-8.751,8.751H52.505
		c-4.839,0-8.751-3.912-8.751-8.751V43.763C43.754,38.933,47.666,35.003,52.505,35.003z"/>
	<path style="fill:#367FB4;" d="M61.256,218.771V43.763c0-4.83,3.912-8.76,8.751-8.76H52.505c-4.839,0-8.751,3.929-8.751,8.76
		v175.008c0,4.839,3.912,8.751,8.751,8.751h17.502C65.168,227.522,61.256,223.602,61.256,218.771z"/>
	<path style="fill:#D99666;" d="M0,227.522h280.027v52.505H0V227.522z"/>
	<path style="fill:#F7CB8B;" d="M43.754,166.266h52.505v35.021H43.754V166.266z"/>
	<path style="fill:#349886;" d="M105.01,0h52.505c4.839,0,8.751,3.929,8.751,8.768v210.003c0,4.839-3.912,8.751-8.751,8.751H105.01
		c-4.839,0-8.751-3.912-8.751-8.751V8.76C96.259,3.929,100.171,0,105.01,0z"/>
	<path style="fill:#9ACCC3;" d="M122.512,192.528h17.502V70.007h-17.502C122.512,70.007,122.512,192.528,122.512,192.528z
		 M122.512,35.003v17.502h17.502V35.003H122.512z"/>
	<path style="fill:#E2574C;" d="M175.017,52.505h52.505c4.839,0,8.751,3.929,8.751,8.751v157.515c0,4.839-3.912,8.751-8.751,8.751
		h-52.505c-4.839,0-8.751-3.912-8.751-8.751V61.256C166.266,56.434,170.178,52.505,175.017,52.505z"/>
	<rect x="43.754" y="166.266" style="fill:#D2AD77;" width="17.502" height="35.021"/>
	<path style="fill:#2C8172;" d="M113.761,218.771V8.76c0-4.83,3.912-8.76,8.751-8.76H105.01c-4.839,0-8.751,3.929-8.751,8.76
		v210.012c0,4.839,3.912,8.751,8.751,8.751h17.502C117.673,227.522,113.761,223.602,113.761,218.771z"/>
	<path style="fill:#C04A40;" d="M183.768,218.771V61.256c0-4.822,3.912-8.751,8.751-8.751h-17.502c-4.839,0-8.751,3.929-8.751,8.751
		v157.515c0,4.839,3.912,8.751,8.751,8.751h17.502C187.68,227.522,183.768,223.602,183.768,218.771z"/>
	<path style="fill:#F7CB8B;" d="M166.266,140.014h70.007V105.01h-70.007V140.014z M166.266,87.509v8.768h70.007v-8.768H166.266z"/>
	<g>
		<rect x="166.266" y="87.509" style="fill:#D2AD77;" width="17.502" height="8.768"/>
		<rect x="166.266" y="105.01" style="fill:#D2AD77;" width="17.502" height="35.003"/>
	</g>
</g>
<g>
</g>
<g>
</g>
<g>
</g>
<g>
</g>
<g>
</g>
<g>
</g>
<g>
</g>
<g>
</g>
<g>
</g>
<g>
</g>
<g>
</g>
<g>
</g>
<g>
</g>
<g>
</g>
<g>
</g>
</svg>
